<?xml version="1.0" encoding="UTF-8"?>
<svg enable-background="new 0 0 238 72" version="1.1" viewBox="0 0 238 72" xml:space="preserve" xmlns="http://www.w3.org/2000/svg">
<style type="text/css">
	.st0{fill:#ffffff;}
	.st1{fill:#ffffff;}
	.st2{fill:#ffffff;}
</style>
		<path class="st0" d="m134 29.9c0-3.7-0.1-6.9-0.3-9.8h5l0.2 6.2h0.3c1.4-4.2 4.9-6.9 8.7-6.9 0.6 0 1.1 0.1 1.6 0.2v5.4c-0.6-0.1-1.2-0.2-1.9-0.2-4 0-6.9 3-7.7 7.3-0.1 0.8-0.3 1.7-0.3 2.7v16.7h-5.6v-21.6z"/>
		<path class="st0" d="m181.5 43c0 3.2 0.1 6.1 0.3 8.6h-5.1l-0.3-5.1h-0.1c-1.5 2.5-4.8 5.8-10.4 5.8-4.9 0-10.8-2.7-10.8-13.7v-18.5h5.7v17.4c0 6 1.8 10 7 10 3.8 0 6.5-2.7 7.5-5.2 0.3-0.8 0.5-1.9 0.5-2.9v-19.3h5.7v22.9z"/>
		<path class="st0" d="m191 28.6c0-3.2-0.1-5.9-0.3-8.5h5l0.3 5.1h0.2c1.8-3 4.7-5.8 9.9-5.8 4.3 0 7.5 2.6 8.9 6.3h0.1c1-1.8 2.2-3.1 3.5-4.1 1.9-1.4 4-2.2 6.9-2.2 4.2 0 10.3 2.7 10.3 13.6v18.5h-5.6v-17.7c0-6-2.2-9.7-6.8-9.7-3.2 0-5.8 2.4-6.7 5.2-0.3 0.8-0.5 1.8-0.5 2.9v19.4h-5.6v-18.9c0-5-2.2-8.6-6.6-8.6-3.6 0-6.2 2.9-7.1 5.7-0.3 0.8-0.5 1.8-0.5 2.8v18.9h-5.4v-22.9z"/>
	<path class="st1" d="m96.6 35.5c0 11.5-8.1 16.7-16.6 16.7-9.2 0-16.2-6-16.2-16.2 0-10.1 6.7-16.6 16.7-16.6 9.7 0.1 16.1 6.7 16.1 16.1zm-22.7 0.3c0 5.4 2.2 9.4 6.4 9.4 3.8 0 6.2-3.8 6.2-9.4 0-4.7-1.8-9.4-6.2-9.4-4.7 0-6.4 4.8-6.4 9.4z"/>
	<path class="st1" d="M99.6,46l9.9-12.4c1.8-2.1,3.2-3.7,5-5.6v-0.1h-13.8v-7.7h25.7V26l-9.4,11.9c-1.7,2.1-3.3,4-5.1,5.8v0.1h15.1   v7.8H99.6V46z"/>
	<path class="st2" d="m46 33.6c-2.1 7-8.5 12-16.2 12-9.3 0-16.9-7.6-16.9-16.9s7.6-16.9 16.9-16.9c7.6 0 14.1 5.1 16.2 12l10.9-2.2c-3.1-12.1-14.1-21-27.1-21-15.5 0-28 12.6-28 28 0 6.8 2.4 13.1 6.5 17.9l21.6 25.2 21.5-25.2c2.6-3.1 4.6-6.8 5.6-10.9l-11-2z"/>
	<circle class="st2" cx="29.8" cy="28.7" r="8.4"/>
</svg>
